<svg width="38" height="38" viewBox="0 0 38 38" fill="none" xmlns="http://www.w3.org/2000/svg">
<path d="M32.7966 10.9979L27.9843 6.17999C26.411 4.60663 23.8511 4.60671 22.2778 6.17999L5.32601 22.9809C5.16495 23.142 5.05704 23.356 5.01859 23.5654V32.5158C4.98573 32.6934 4.99655 32.8763 5.05011 33.0487C5.10368 33.2212 5.19839 33.378 5.32607 33.5057C5.45375 33.6334 5.61058 33.7281 5.78303 33.7817C5.95548 33.8353 6.13837 33.8461 6.31594 33.8133L15.2603 33.8132C15.4752 33.7731 15.6864 33.6642 15.8448 33.5057L32.7966 16.7048C34.3736 15.1278 34.3738 12.5751 32.7966 10.9979ZM15.4106 29.4221L9.4093 23.4205L22.4986 10.3301L28.4999 16.3318L15.4106 29.4221Z" fill="#9F9997"/>
</svg>
