<svg width="37" height="34" viewBox="0 0 37 34" fill="none" xmlns="http://www.w3.org/2000/svg">
<path d="M26.0833 31.0008H10.6667C8.96379 31.0008 8 29.5653 8 28.0005V10.0005H5V7.00048H11V5.50048C11 4 12.5 3 13.75 3H23C24.5 3 26 4 26 5.50048V7.00048H32V10.0005H29L29.1667 28.1675C29.1667 29.7323 27.7862 31.0008 26.0833 31.0008ZM11 10.0005V28.0005H26V10.0005H11ZM23 17.0005H20V14.0005H23V17.0005ZM17 17.0005H14V14.0005H17V17.0005Z" fill="#9F9997"/>
<path d="M17 24.0007H14V21.0007H17V24.0007Z" fill="#9F9997"/>
<path d="M23 24.0005H20V21.0005H23V24.0005Z" fill="#9F9997"/>
</svg>
